<?xml version="1.0" standalone="no"?>
<!DOCTYPE svg PUBLIC "-//W3C//DTD SVG 20010904//EN"
 "http://www.w3.org/TR/2001/REC-SVG-20010904/DTD/svg10.dtd">
<svg version="1.0" xmlns="http://www.w3.org/2000/svg"
 width="1913.000000pt" height="1913.000000pt" viewBox="0 0 1913.000000 1913.000000"
 preserveAspectRatio="xMidYMid meet">

<g transform="translate(0.000000,1913.000000) scale(0.100000,-0.100000)"
fill="#000000" stroke="none">
<path d="M2735 19124 c-752 -83 -1353 -596 -1506 -1284 -108 -489 29 -1005
368 -1382 114 -127 6803 -6469 6898 -6540 640 -479 1548 -470 2160 21 137 110
6845 6481 6914 6566 121 151 216 317 274 480 72 203 104 483 78 696 -42 361
-203 686 -470 949 -419 413 -1023 585 -1611 458 -147 -31 -262 -73 -415 -148
-161 -80 -280 -163 -414 -287 -52 -48 -1299 -1230 -2770 -2626 -1471 -1396
-2678 -2536 -2682 -2535 -4 2 -1244 1176 -2756 2610 -1511 1434 -2784 2635
-2827 2668 -217 166 -477 281 -748 330 -110 21 -397 34 -493 24z"/>
<path d="M1430 11164 c-19 -3 -82 -14 -139 -25 -615 -122 -1115 -613 -1252
-1228 -113 -514 39 -1068 397 -1440 185 -193 8090 -8091 8129 -8122 123 -97
307 -200 453 -253 526 -189 1099 -94 1552 257 71 55 7908 7882 8101 8091 132
142 216 260 289 406 278 555 205 1232 -184 1719 -135 168 -363 351 -549 440
-114 55 -264 105 -393 132 -94 20 -137 24 -314 23 -175 0 -220 -3 -310 -23
-249 -53 -442 -139 -650 -289 -51 -37 -1165 -1144 -3535 -3513 l-3460 -3459
-3435 3436 c-1889 1889 -3464 3459 -3500 3488 -205 168 -445 282 -710 337 -93
20 -402 34 -490 23z"/>
</g>
</svg>
