<svg id="Capa_1" data-name="Capa 1" xmlns="http://www.w3.org/2000/svg" viewBox="0 0 417 438"><defs><style>.cls-1{fill:#080408;}.cls-2{fill:#e6e8ec;}.cls-3{fill:#f6e3a6;}.cls-4{fill:#e9bc3d;}.cls-5{fill:#a9b0bb;}.cls-6{fill:#d0796f;}.cls-7{fill:#cbd0d8;}.cls-8{fill:#60a999;}.cls-9{fill:#efcf72;}.cls-10{fill:#a8b0bb;}.cls-11{fill:#cbcfd7;}.cls-12{fill:#af8925;}.cls-13{fill:#080508;}.cls-14{fill:#fff;}</style></defs><title>webdesign-socialmedia</title><path class="cls-1" d="M160.65,330.14c-12.67,12.69-24.58,24.59-36.45,36.54a14.35,14.35,0,0,1-5.22,3.43C94.37,379.51,69.8,389,45.19,398.4c-9.93,3.78-19.47-.88-22.19-10.67a16.47,16.47,0,0,1,.78-10.6q14.43-37.39,28.73-74.83a11.94,11.94,0,0,1,3-4.18l49.06-49c1.24-1.24,2.26-2.13,1.36-4.4-6.2-15.76-6.61-32.06-4.05-48.93h-18c-8.5,0-17,0-25.5,0-17.85-.09-32-12.16-35.54-30.29-3.1-15.84,6.47-32.8,22.18-39.16,1.88-.76,2.85-1.09,2.4-3.76C42,89.67,61.68,60.48,94.09,53c24.12-5.57,50.2,5.66,63.4,27.4,1.29,2.13,2.22,3,5.14,2.39a47.34,47.34,0,0,1,49.78,20.43,5.56,5.56,0,0,0,4.67,2.93,92.72,92.72,0,0,1,23.42,4.51c2.39.83,3.17-.71,4.32-1.86q33-33,66-66c18.71-18.68,46.07-20.31,66.08-4a48.25,48.25,0,0,1,3.91,71.06c-22.24,22.65-44.81,45-67.34,67.35-2,2-2.45,3.54-1.57,6.14A85.62,85.62,0,0,1,316,205c.16,2.19.85,2.9,3.14,2.86,3.05-.05,7.26-1.51,8.88.63s.43,6,.44,9.1c0,8,3.1,12.35,9.81,13.76a10.7,10.7,0,0,0,9.95-3q3.83-3.59,7.43-7.41c1.14-1.22,1.83-1.12,3,0q11.19,11.34,22.54,22.53c1.31,1.28,1.35,2,0,3.24-2.48,2.29-4.83,4.71-7.16,7.15-3.43,3.59-4.38,7.8-2.52,12.41s5.64,7.2,10.71,7.44c3.24.16,6.5.13,9.75,0,1.84-.07,2.59.32,2.57,2.41-.12,10.37-.09,20.75,0,31.12,0,1.86-.35,2.68-2.43,2.55-3-.19-6-.09-9,0-5.17.08-9.2,2.07-11.35,7s-1.1,9.48,2.71,13.33c2,2,4,4.16,6.12,6.07,1.67,1.5,2.1,2.47.17,4.33Q369.84,351,359.29,362c-1.78,1.84-2.77,1.69-4.33-.09-2-2.25-4.19-4.29-6.34-6.38-3.65-3.56-7.93-4.67-12.7-2.71s-7.27,5.89-7.41,11.12c-.09,3.25-.1,6.5,0,9.75.06,1.63-.43,2.13-2.09,2.12q-15.93-.11-31.87,0c-1.64,0-2.17-.45-2.11-2.1.12-3.25.12-6.5,0-9.75-.17-5-2.26-8.9-7.05-11s-9.24-1.15-13,2.52l-1.07,1.05c-2.41,2.35-4.55,6.09-7.32,6.64-2.61.51-4.38-4.09-7.28-6-.43,8.67-4.57,14.61-12.58,17.62-1.35.51-1.42,1.58-1.87,2.53-6.73,14.31-17.88,22.29-33.8,22.28s-27.07-8-33.7-22.37a4.88,4.88,0,0,0-2.63-2.76c-11.53-5.12-15-16.63-8.33-27.19.5-.79,1.5-1.37.54-2.54C161.07,340.84,160.08,336.19,160.65,330.14Z"/><path class="cls-2" d="M139.14,183.75c-26.74,0-53.48,0-80.22,0-13.3,0-23.94-10.13-24.39-22.92a24.23,24.23,0,0,1,21.52-25c12.55-1.45,24.08,7.59,26.19,20.83.39,2.46.95,3.59,3.51,3.09a10,10,0,0,1,1.87,0c7.48,0,7.48,0,6.14-7.3-2.54-13.81-14.7-25.87-28.71-27.89-4.17-.6-5.49-2.17-6.13-6.35C55.11,93.11,73.74,67.86,99.06,64.46c19.91-2.68,35.57,4.48,47.26,20.72,1.56,2.17,1.84,3.29-.84,5.1a45.56,45.56,0,0,0-20.24,31.8c-.31,2-1.33,2.59-3,3.22-8.76,3.36-13.81,9.85-15.6,19-.44,2.23-.35,4,2.75,3.49a10.3,10.3,0,0,1,2.62,0c3.85.36,6.69.19,7.81-4.89,1-4.66,6.39-7.31,11.18-7.11,4.95.21,9.61,3.43,10.69,8.41.75,3.45,2.42,4,5.31,3.58a9.8,9.8,0,0,1,1.5,0c6.92,0,7.16-.24,5-7-2.28-7-6.73-12.2-13.66-14.89-2.41-.93-2.91-2.09-2.34-4.42A36.37,36.37,0,0,1,174.1,93.8c16.67.58,30.88,13.29,33.79,30a35,35,0,0,1,.52,8.19c-.24,3.91-1.24,7-5.13,9.46-7.61,4.74-11.42,12.25-12.72,21.05-.32,2.15-.09,3.76,2.74,3.21a6.09,6.09,0,0,1,1.12,0c2.37,0,5,.63,7.05-.19,2.28-.92,1.36-4.07,2.2-6.16,3.32-8.27,12.14-13.2,20.48-11.2,9.13,2.2,15.15,10.3,14.28,19.21a18.12,18.12,0,0,1-17.58,16.28c-18.74.14-37.49,0-56.23.05Z"/><path class="cls-3" d="M219.18,118.44A93.5,93.5,0,0,1,264.35,136c22,16.12,35.18,37.76,39.21,64.71,3.74,25-3,46.84-20.81,65.13-9.86,10.09-20.52,19.41-29.21,30.63a81.64,81.64,0,0,0-10.46,17.2c-.7,1.6-1.44,2.2-3.28,2.16-7.5-.15-15-.17-22.49,0-2.36.05-2.91-.63-2.88-2.92.14-8.75.06-17.5.05-26.24,0-11.36-7.62-18.89-19.08-18.9-3.25,0-6.5,0-9.75,0-4.4-.06-7.13-2.35-7.15-6s2.71-6,7.09-6c19.5,0,39,0,58.49,0,9.43,0,17.35-6.87,18.35-15.84A18.25,18.25,0,0,0,248,220.05a19.09,19.09,0,0,0-4.09-.29q-22.68,0-45.37,0c-6,0-8-2-8.06-8.08,0-4.5.11-9-.05-13.5-.07-2,.65-2.48,2.55-2.46,9.12.09,18.25.06,27.37,0,15.92,0,29.43-12.59,30.11-27.94.75-16.9-11.21-30.69-27.87-32-1.87-.15-2.51-.38-2.26-2.5A43.87,43.87,0,0,0,219.18,118.44Z"/><path class="cls-3" d="M213.58,243.75c-9.62,0-19.25,0-28.87,0a18,18,0,0,0-18.21,17.88c0,10.18,8,18.07,18.36,18.11,3.75,0,7.5-.08,11.25,0,3.94.12,6.31,2.41,6.35,6.35.1,9.12,0,18.25.09,27.37,0,2.28-1.06,2.28-2.73,2.27-7.62,0-15.25-.08-22.87,0a2.75,2.75,0,0,1-3-2c-5-11.49-12.89-21-21.57-29.86s-18.18-17.16-25.76-27.18c-11.49-15.18-15.56-32.3-13.6-51.06.34-3.21-.35-7.41,1.71-9.28,2.25-2,6.44-.63,9.77-.64,16.87-.07,33.74,0,50.61-.1,2.83,0,3.6.69,3.45,3.49-.25,4.74-.08,9.49-.07,14.24,0,10.58,7.84,18.32,18.51,18.34q23.24,0,46.49,0c2.69,0,4.87.79,6.23,3.29a5.44,5.44,0,0,1-.34,6c-1.46,2.2-3.68,2.74-6.2,2.73C233.33,243.72,223.46,243.75,213.58,243.75Z"/><path class="cls-4" d="M317.16,225.77c5.52,17.64,23.41,23.2,38.55,12.43,3.9-2.77,4.75,3.12,7.35,4.52,1.17.63,3,1.56,1.16,4-12.31,16-3.75,36.3,16.37,39,1.4.19,2.1.46,1.91,1.94a3,3,0,0,0,0,.37c0,2.87.79,6.09-.25,8.53s-4.74,1.39-7.2,2.19c-15.53,5-21.67,24.34-11.54,37.18,1.81,2.29,1.58,3.36-.38,5s-3.29,4.25-5.42,5.05c-2.41.9-4-2.23-6.08-3.36-14.83-8-33.31,1.57-35,18.42-.24,2.41-1,3-3.08,2.72a8.42,8.42,0,0,0-1.12,0c-2.37,0-5.16.73-7-.26s-1.08-4.22-1.68-6.41c-4.38-16.07-24.47-22.65-37.65-12.13-2,1.56-3,1.58-4.44-.26a16,16,0,0,0-2.11-2.13c-2.36-2.09-4.26-4-3.2-7.85,1-3.54-.6-7.11-2.52-10.28-.63-1-1.35-1.93-.74-3.4a78.92,78.92,0,0,1,15.64-23.75c2.74,14.64,10.13,25.45,23,32a39.77,39.77,0,0,0,28.32,3.33c20.62-5.1,34.49-24.25,32.32-44.73-2.24-21.14-19.24-38.19-43.37-38.26a82.67,82.67,0,0,0,6.8-24.58C316.66,224.59,316.83,225.32,317.16,225.77Z"/><path class="cls-5" d="M382.48,77.36c-.38,9.72-4.44,18.61-12.11,26-6,5.73-5.86,5.83-11.74-.05Q337,81.68,315.38,60.11c-1.79-1.78-2-2.73-.11-4.66C321.56,49.11,328,43.28,337.05,41,360.1,35.15,382.64,52.64,382.48,77.36Z"/><path class="cls-6" d="M88.87,324.71c-1.09.07-1.48-.67-2-1.17-6-6-12-12-18-18-1.36-1.33-1.53-2.12-.08-3.56Q90,280.9,111.13,259.65c1.24-1.25,1.84-1.41,2.93.25A119.24,119.24,0,0,0,130.24,279c1.59,1.58,2.08,2.5.16,4.39C117.07,296.51,103.88,309.8,90.64,323,90,323.64,89.39,324.22,88.87,324.71Z"/><path class="cls-7" d="M106.71,361.79c-9.11,3.52-19,6.57-28.2,11.13-7.87,3.91-13.18,3-18.47-4-3.66-4.84-8.52-8.76-12.86-13.09-.88-.88-1.72-1.54-1.08-3.16,4.89-12.47,9.66-25,14.34-37.15Z"/><path class="cls-8" d="M160.09,313c-.13,1-.9,1.47-1.5,2.07q-19.08,19.09-38.13,38.2c-1.44,1.45-2.28,1.7-3.84.1q-8.74-9-17.76-17.76c-1.62-1.57-1.31-2.41.12-3.84q20.08-19.94,40-40c1.61-1.63,2.48-1.72,4.12,0,5.65,5.84,11.16,11.77,15.46,18.71C159.11,311.28,159.59,312.15,160.09,313Z"/><path class="cls-9" d="M310.31,321.75c-18.56-.11-32.75-17.41-29.19-35.42a7.36,7.36,0,0,1,2.4-4c5.45-5.33,10.55-11,15.48-16.78,3.55-4.17,8.69-3.92,13.48-3.64,14.67.86,26.48,12.58,27.93,27.4,1.35,13.81-7.95,27.19-21.64,31.17A29.54,29.54,0,0,1,310.31,321.75Z"/><path class="cls-8" d="M316.61,114.55c.69.65,1.25,1.14,1.77,1.66,5.92,5.92,11.8,11.87,17.79,17.73,1.36,1.33,1.53,2.13.08,3.57Q322,151.59,307.88,165.85c-1.39,1.41-2.1,1.7-3.11-.38a101.08,101.08,0,0,0-14.69-22c-.84-1-1.27-1.53-.13-2.66,8.44-8.35,16.8-16.77,25.2-25.15A15.39,15.39,0,0,1,316.61,114.55Z"/><path class="cls-6" d="M307.73,105.78c-.62.68-1.09,1.24-1.6,1.75-8.11,8.12-16.24,16.22-24.32,24.38-1.19,1.2-1.9,1.33-3.26.11a98.41,98.41,0,0,0-21.61-14.55c-1.78-.89-2.24-1.44-.58-3.07,9.51-9.37,18.92-18.84,28.34-28.29,1.05-1.06,1.8-1.88,3.28-.37,6.1,6.25,12.32,12.38,18.49,18.56C306.89,104.72,307.25,105.2,307.73,105.78Z"/><path class="cls-2" d="M355.48,116.68a2.87,2.87,0,0,1-1.22,2.71c-2,2.06-4.16,4-6,6.13-1.4,1.59-2.22,1.21-3.54-.12q-23.9-24-47.94-47.92c-1.47-1.46-1.34-2.26.1-3.53,2.6-2.31,4.83-6.35,7.62-6.73,2.62-.36,4.89,4,7.25,6.36q21,20.86,41.88,41.8A9.35,9.35,0,0,0,355.48,116.68Z"/><path class="cls-7" d="M208.27,339.75q-14.06,0-28.11,0c-4.79,0-7.53-2.14-7.63-5.85s2.76-6.13,7.71-6.14q28.3,0,56.6,0c4.79,0,7.53,2.14,7.63,5.85s-2.77,6.13-7.72,6.14Q222.51,339.77,208.27,339.75Z"/><path class="cls-7" d="M208.63,363.75q-14.24,0-28.49,0c-4.78,0-7.52-2.15-7.61-5.87s2.76-6.12,7.73-6.12q28.3,0,56.6,0c4.78,0,7.52,2.15,7.62,5.86s-2.74,6.12-7.73,6.13Q222.68,363.77,208.63,363.75Z"/><path class="cls-10" d="M187.44,375.89h41.29c-1.83,5.59-9.59,11-17.86,11.68C201.16,388.39,193.5,384.44,187.44,375.89Z"/><path class="cls-11" d="M40.72,366.93l14.54,14.63c-5.09,2-10.16,4.1-15.33,5.9a4.13,4.13,0,0,1-5.2-5.09,18.11,18.11,0,0,1,.77-2.09Z"/><path class="cls-12" d="M317.16,225.77l-1.32-.73c0-.65-.27-1.86.35-1.72C317.1,223.54,317.3,224.75,317.16,225.77Z"/><path class="cls-13" d="M292.5,291.52a18,18,0,1,1,17.86,18.23A18,18,0,0,1,292.5,291.52Z"/><path class="cls-14" d="M316.46,291.65a6,6,0,1,1-6.06-5.86A6.29,6.29,0,0,1,316.46,291.65Z"/></svg>